<svg width="96" height="96" viewBox="0 0 96 96" fill="none" xmlns="http://www.w3.org/2000/svg">
<path d="M9.86279 32.7568L48.3285 9.40544L71.0135 24.3244V0.648682H86.7943V32.7568V91.1352H9.86279V32.7568Z" fill="#EBEBF0"/>
<rect x="45.6985" y="29.8379" width="5.26027" height="53.8378" rx="2.63014" fill="#FFA030"/>
<rect x="21.0414" y="59.3513" width="5.18919" height="54.5753" rx="2.59459" transform="rotate(-90 21.0414 59.3513)" fill="#FFA030"/>
<rect width="5.22485" height="45.8523" rx="2.61243" transform="matrix(0.711901 -0.70228 0.711901 0.70228 30.1476 42.4907)" fill="#FFA030"/>
<rect width="5.22485" height="45.8523" rx="2.61243" transform="matrix(0.711901 0.70228 -0.711901 0.70228 62.7897 38.8215)" fill="#FFA030"/>
<ellipse cx="48.6577" cy="56.7567" rx="14.137" ry="13.9459" fill="#FDBF00"/>
<path d="M0.328491 32.5774C0.328491 31.2717 0.992175 30.053 2.09577 29.3322L43.993 1.96822C46.4207 0.382652 49.5754 0.387616 51.998 1.98081L54.9038 3.89189L47.9997 14.2703L4.43141 43.3185C2.6847 44.4831 0.328491 43.2486 0.328491 41.1688V32.5774Z" fill="#FDBF00"/>
<path d="M95.9997 32.5774C95.9997 31.2717 95.336 30.053 94.2324 29.3322L52.3352 1.96822C49.9075 0.382652 46.7528 0.387616 44.3303 1.98081L41.4244 3.89189L48.3285 14.2703L91.8968 43.3185C93.6435 44.4831 95.9997 43.2486 95.9997 41.1688V32.5774Z" fill="#FDBF00"/>
<rect x="65.7534" width="25.6438" height="6.48649" rx="3.24324" fill="#FDBF00"/>
<rect y="89.5135" width="96" height="6.48649" rx="3.24324" fill="#83AD59"/>
<g style="mix-blend-mode:plus-lighter" opacity="0.29">
<path d="M9.86301 32.7568V91.1351H48.3288V9.4054L9.86301 32.7568Z" fill="#FFA030"/>
<path d="M0.328767 32.5774C0.328767 31.2717 0.992451 30.053 2.09605 29.3322L43.9933 1.96822C45.2078 1.175 46.6043 0.779849 48 0.782484H48.3288V2.5946V6.16217V13.946L4.43169 43.3185C2.68498 44.4831 0.328767 43.2486 0.328767 41.1689V32.5774Z" fill="#FFA030"/>
<path d="M0 92.7568C0 90.9656 1.47194 89.5135 3.28767 89.5135H48.3288V96H3.28767C1.47194 96 0 94.548 0 92.7568Z" fill="#FFA030"/>
</g>
</svg>
