<svg width="29" height="29" viewBox="0 0 29 29" fill="none" xmlns="http://www.w3.org/2000/svg">
<path d="M25.3672 11.7709C26.3327 11.251 26.8155 10.9911 26.9376 10.6783C27.0436 10.4069 27.0136 10.1012 26.8571 9.85551C26.6766 9.57236 26.1526 9.41095 25.1046 9.08812L4.59803 2.7713C3.74192 2.50758 3.31387 2.37572 3.02475 2.48182C2.77293 2.57423 2.57448 2.77269 2.48207 3.02451C2.37597 3.31362 2.50782 3.74167 2.77153 4.59778L9.08832 25.1044C9.41114 26.1524 9.57255 26.6764 9.8557 26.8568C10.1014 27.0134 10.4071 27.0433 10.6785 26.9374C10.9913 26.8153 11.2512 26.3325 11.7711 25.367L16.322 16.9155C16.3993 16.772 16.4379 16.7003 16.4875 16.6375C16.5316 16.5817 16.582 16.5313 16.6378 16.4873C16.7006 16.4376 16.7723 16.399 16.9158 16.3217L25.3672 11.7709Z" stroke="black" stroke-width="4" stroke-linecap="round" stroke-linejoin="round"/>
</svg>
